REM DIRINDEX 1\2,1\3,1\4
REM DIRNAME cjc105,folder01,folder02,folder03
TITLE ""
FILE "DISC3Track38.mp3" MP3
  TRACK 01 AUDIO
    TITLE "0:"
    INDEX 01 00:00:00
  TRACK 02 AUDIO
    TITLE "4:cjc105_6167"
    INDEX 01 00:00:19
  TRACK 03 AUDIO
    TITLE "0:"
    INDEX 01 00:03:70
  TRACK 04 AUDIO
    TITLE "4:cjc105_6168"
    INDEX 01 00:04:31
  TRACK 05 AUDIO
    TITLE "0:"
    INDEX 01 00:06:61
  TRACK 06 AUDIO
    TITLE "2:cjc105_6169"
    INDEX 01 00:07:39
  TRACK 07 AUDIO
    TITLE "3:cjc105_6170"
    INDEX 01 00:08:70
  TRACK 08 AUDIO
    TITLE "0:"
    INDEX 01 00:10:37
  TRACK 09 AUDIO
    TITLE "2:cjc105_6171"
    INDEX 01 00:10:63
  TRACK 10 AUDIO
    TITLE "3:cjc105_6172"
    INDEX 01 00:11:72
  TRACK 11 AUDIO
    TITLE "0:"
    INDEX 01 00:13:37
  TRACK 12 AUDIO
    TITLE "2:cjc105_6173"
    INDEX 01 00:13:61
  TRACK 13 AUDIO
    TITLE "3:cjc105_6174"
    INDEX 01 00:15:28
  TRACK 14 AUDIO
    TITLE "0:"
    INDEX 01 00:16:71
  TRACK 15 AUDIO
    TITLE "2:cjc105_6175"
    INDEX 01 00:17:12
  TRACK 16 AUDIO
    TITLE "3:cjc105_6176"
    INDEX 01 00:18:58
  TRACK 17 AUDIO
    TITLE "0:"
    INDEX 01 00:20:20
  TRACK 18 AUDIO
    TITLE "2:cjc105_6177"
    INDEX 01 00:20:39
  TRACK 19 AUDIO
    TITLE "3:cjc105_6178"
    INDEX 01 00:22:46
  TRACK 20 AUDIO
    TITLE "0:"
    INDEX 01 00:24:35
  TRACK 21 AUDIO
    TITLE "2:cjc105_6179"
    INDEX 01 00:24:55
  TRACK 22 AUDIO
    TITLE "3:cjc105_6180"
    INDEX 01 00:26:22
  TRACK 23 AUDIO
    TITLE "0:"
    INDEX 01 00:27:63
  TRACK 24 AUDIO
    TITLE "2:cjc105_6181"
    INDEX 01 00:28:08
  TRACK 25 AUDIO
    TITLE "3:cjc105_6182"
    INDEX 01 00:29:58
  TRACK 26 AUDIO
    TITLE "0:"
    INDEX 01 00:31:14
  TRACK 27 AUDIO
    TITLE "2:cjc105_6183"
    INDEX 01 00:31:35
  TRACK 28 AUDIO
    TITLE "3:cjc105_6184"
    INDEX 01 00:32:72
  TRACK 29 AUDIO
    TITLE "0:"
    INDEX 01 00:34:34
  TRACK 30 AUDIO
    TITLE "2:cjc105_6185"
    INDEX 01 00:34:57
  TRACK 31 AUDIO
    TITLE "3:cjc105_6186"
    INDEX 01 00:36:09
  TRACK 32 AUDIO
    TITLE "0:"
    INDEX 01 00:37:44
  TRACK 33 AUDIO
    TITLE "2:cjc105_6187"
    INDEX 01 00:37:65
  TRACK 34 AUDIO
    TITLE "3:cjc105_6188"
    INDEX 01 00:40:03
  TRACK 35 AUDIO
    TITLE "0:"
    INDEX 01 00:41:44
  TRACK 36 AUDIO
    TITLE "2:cjc105_6189"
    INDEX 01 00:41:59
  TRACK 37 AUDIO
    TITLE "3:cjc105_6190"
    INDEX 01 00:43:17
  TRACK 38 AUDIO
    TITLE "0:"
    INDEX 01 00:44:38
  TRACK 39 AUDIO
    TITLE "2:cjc105_6191"
    INDEX 01 00:44:58
  TRACK 40 AUDIO
    TITLE "3:cjc105_6192"
    INDEX 01 00:46:31
  TRACK 41 AUDIO
    TITLE "0:"
    INDEX 01 00:47:68
  TRACK 42 AUDIO
    TITLE "2:cjc105_6193"
    INDEX 01 00:48:12
  TRACK 43 AUDIO
    TITLE "3:cjc105_6194"
    INDEX 01 00:49:65
  TRACK 44 AUDIO
    TITLE "0:"
    INDEX 01 00:51:20
  TRACK 45 AUDIO
    TITLE "2:cjc105_6195"
    INDEX 01 00:51:42
  TRACK 46 AUDIO
    TITLE "3:cjc105_6196"
    INDEX 01 00:52:57
  TRACK 47 AUDIO
    TITLE "0:"
    INDEX 01 00:54:38
  TRACK 48 AUDIO
    TITLE "2:cjc105_6197"
    INDEX 01 00:54:60
  TRACK 49 AUDIO
    TITLE "3:cjc105_6198"
    INDEX 01 00:56:29
  TRACK 50 AUDIO
    TITLE "0:"
    INDEX 01 00:57:37
  TRACK 51 AUDIO
    TITLE "2:cjc105_6199"
    INDEX 01 00:57:56
  TRACK 52 AUDIO
    TITLE "3:cjc105_6200"
    INDEX 01 00:59:08
  TRACK 53 AUDIO
    TITLE "0:"
    INDEX 01 01:00:59
  TRACK 54 AUDIO
    TITLE "2:cjc105_6201"
    INDEX 01 01:01:07
  TRACK 55 AUDIO
    TITLE "3:cjc105_6202"
    INDEX 01 01:02:50
  TRACK 56 AUDIO
    TITLE "0:"
    INDEX 01 01:04:13
  TRACK 57 AUDIO
    TITLE "2:cjc105_6203"
    INDEX 01 01:04:37
  TRACK 58 AUDIO
    TITLE "3:cjc105_6204"
    INDEX 01 01:06:22
  TRACK 59 AUDIO
    TITLE "0:"
    INDEX 01 01:07:70
  TRACK 60 AUDIO
    TITLE "2:cjc105_6205"
    INDEX 01 01:08:09
  TRACK 61 AUDIO
    TITLE "3:cjc105_6206"
    INDEX 01 01:09:54
  TRACK 62 AUDIO
    TITLE "0:"
    INDEX 01 01:11:13
  TRACK 63 AUDIO
    TITLE "2:cjc105_6207"
    INDEX 01 01:11:35
  TRACK 64 AUDIO
    TITLE "3:cjc105_6208"
    INDEX 01 01:12:40
  TRACK 65 AUDIO
    TITLE "0:"
    INDEX 01 01:13:65
  TRACK 66 AUDIO
    TITLE "2:cjc105_6209"
    INDEX 01 01:14:14
  TRACK 67 AUDIO
    TITLE "3:cjc105_6210"
    INDEX 01 01:16:24
  TRACK 68 AUDIO
    TITLE "0:"
    INDEX 01 01:18:64
  TRACK 69 AUDIO
    TITLE "2:cjc105_6211"
    INDEX 01 01:19:13
  TRACK 70 AUDIO
    TITLE "3:cjc105_6212"
    INDEX 01 01:20:34
  TRACK 71 AUDIO
    TITLE "0:"
    INDEX 01 01:21:53
  TRACK 72 AUDIO
    TITLE "2:cjc105_6213"
    INDEX 01 01:22:01
  TRACK 73 AUDIO
    TITLE "3:cjc105_6214"
    INDEX 01 01:23:56
  TRACK 74 AUDIO
    TITLE "0:"
    INDEX 01 01:25:08
  TRACK 75 AUDIO
    TITLE "2:cjc105_6215"
    INDEX 01 01:25:27
  TRACK 76 AUDIO
    TITLE "3:cjc105_6216"
    INDEX 01 01:26:66
  TRACK 77 AUDIO
    TITLE "0:"
    INDEX 01 01:28:37
  TRACK 78 AUDIO
    TITLE "2:cjc105_6217"
    INDEX 01 01:28:59
  TRACK 79 AUDIO
    TITLE "3:cjc105_6218"
    INDEX 01 01:30:18
  TRACK 80 AUDIO
    TITLE "0:"
    INDEX 01 01:31:55
  TRACK 81 AUDIO
    TITLE "2:cjc105_6219"
    INDEX 01 01:31:71
  TRACK 82 AUDIO
    TITLE "3:cjc105_6220"
    INDEX 01 01:33:42
  TRACK 83 AUDIO
    TITLE "0:"
    INDEX 01 01:34:73
  TRACK 84 AUDIO
    TITLE "2:cjc105_6221"
    INDEX 01 01:35:20
  TRACK 85 AUDIO
    TITLE "3:cjc105_6222"
    INDEX 01 01:37:05
  TRACK 86 AUDIO
    TITLE "0:"
    INDEX 01 01:39:04
  TRACK 87 AUDIO
    TITLE "2:cjc105_6223"
    INDEX 01 01:39:19
  TRACK 88 AUDIO
    TITLE "3:cjc105_6224"
    INDEX 01 01:40:74
  TRACK 89 AUDIO
    TITLE "0:"
    INDEX 01 01:42:10
  TRACK 90 AUDIO
    TITLE "2:cjc105_6225"
    INDEX 01 01:42:28
  TRACK 91 AUDIO
    TITLE "3:cjc105_6226"
    INDEX 01 01:43:66
  TRACK 92 AUDIO
    TITLE "0:"
    INDEX 01 01:45:26
  TRACK 93 AUDIO
    TITLE "2:cjc105_6227"
    INDEX 01 01:45:49
  TRACK 94 AUDIO
    TITLE "3:cjc105_6228"
    INDEX 01 01:47:23
  TRACK 95 AUDIO
    TITLE "0:"
    INDEX 01 01:48:58
  TRACK 96 AUDIO
    TITLE "2:cjc105_6229"
    INDEX 01 01:49:02
  TRACK 97 AUDIO
    TITLE "3:cjc105_6230"
    INDEX 01 01:50:62
  TRACK 98 AUDIO
    TITLE "0:"
    INDEX 01 01:52:48
  TRACK 99 AUDIO
    TITLE "2:cjc105_6231"
    INDEX 01 01:52:71
  TRACK 100 AUDIO
    TITLE "3:cjc105_6232"
    INDEX 01 01:54:25
  TRACK 101 AUDIO
    TITLE "0:"
    INDEX 01 01:55:65
  TRACK 102 AUDIO
    TITLE "2:cjc105_6233"
    INDEX 01 01:56:04
  TRACK 103 AUDIO
    TITLE "3:cjc105_6234"
    INDEX 01 01:58:21
  TRACK 104 AUDIO
    TITLE "0:"
    INDEX 01 02:00:25
  TRACK 105 AUDIO
    TITLE "2:cjc105_6235"
    INDEX 01 02:00:43
  TRACK 106 AUDIO
    TITLE "3:cjc105_6236"
    INDEX 01 02:02:38
  TRACK 107 AUDIO
    TITLE "0:"
    INDEX 01 02:04:43
  TRACK 108 AUDIO
    TITLE "2:cjc105_6237"
    INDEX 01 02:04:60
  TRACK 109 AUDIO
    TITLE "3:cjc105_6238"
    INDEX 01 02:06:38
  TRACK 110 AUDIO
    TITLE "0:"
    INDEX 01 02:08:50
  TRACK 111 AUDIO
    TITLE "2:cjc105_6239"
    INDEX 01 02:08:66
  TRACK 112 AUDIO
    TITLE "3:cjc105_6240"
    INDEX 01 02:10:14
  TRACK 113 AUDIO
    TITLE "0:"
    INDEX 01 02:11:19
  TRACK 114 AUDIO
    TITLE "2:cjc105_6241"
    INDEX 01 02:11:43
  TRACK 115 AUDIO
    TITLE "3:cjc105_6242"
    INDEX 01 02:12:74
  TRACK 116 AUDIO
    TITLE "0:"
    INDEX 01 02:14:37
  TRACK 117 AUDIO
    TITLE "2:cjc105_6243"
    INDEX 01 02:14:65
  TRACK 118 AUDIO
    TITLE "3:cjc105_6244"
    INDEX 01 02:16:13
  TRACK 119 AUDIO
    TITLE "0:"
    INDEX 01 02:17:49
  TRACK 120 AUDIO
    TITLE "2:cjc105_6245"
    INDEX 01 02:18:00
  TRACK 121 AUDIO
    TITLE "3:cjc105_6246"
    INDEX 01 02:19:39
  TRACK 122 AUDIO
    TITLE "0:"
    INDEX 01 02:20:65
  TRACK 123 AUDIO
    TITLE "2:cjc105_6247"
    INDEX 01 02:21:06
  TRACK 124 AUDIO
    TITLE "3:cjc105_6248"
    INDEX 01 02:22:53
  TRACK 125 AUDIO
    TITLE "0:"
    INDEX 01 02:24:16
  TRACK 126 AUDIO
    TITLE "2:cjc105_6249"
    INDEX 01 02:24:32
  TRACK 127 AUDIO
    TITLE "3:cjc105_6250"
    INDEX 01 02:25:65
  TRACK 128 AUDIO
    TITLE "0:"
    INDEX 01 02:27:46
